<?xml version="1.0" encoding="UTF-8"?>
<svg id="a" data-name="SLOT-RAVE.BET" xmlns="http://www.w3.org/2000/svg" viewBox="0 0 400 96">
  <defs>
    <style>
      .p {
        fill: #2500df;
      }

      .q {
        fill: #ff1543;
      }

      .r {
        fill: #e7ff15;
      }
    </style>
  </defs>
  <g id="b" data-name="SLOTRAVE-CASINO">
    <path id="c" data-name="B" class="p" d="M301.92,24.27c1.69,.91,3.26,1.87,4.6,3.27,2.62,2.72,2.91,6.4,.7,9.58-2.18,3.13-5.05,5-8.35,6-3.61,1.1-7.29,1.49-11.01,1.38-1.31-.04-2.63-1.67-2.64-3.33-.02-5.21-.07-10.43,.23-15.64,.37-6.33,.67-12.67,.77-19.02,0-.44,.05-.88,.06-1.32,.11-2.89,.26-3.17,2.67-3.67,3.42-.71,6.87-1.14,10.17,.62,2.99,1.59,5.54,3.81,6.76,7.55,1.44,4.43,.17,10.16-2.88,13.44-.34,.37-.69,.73-1.08,1.14Zm-8.62-17.67c-.66,0-1.32,0-1.97,0-.41,0-.59,.21-.59,.74-.05,4.58-.22,9.15-.46,13.72-.03,.6,.14,.74,.6,.76,.97,.03,1.94,.22,2.91,.17,2.47-.13,4.66-1.11,6.36-3.29,2.49-3.19,2.18-7.33-.71-9.97-1.81-1.65-3.83-2.45-6.13-2.14Zm-3.37,26.66h-.06c0,1.58,.05,3.16-.02,4.73-.04,.9,.25,1.03,.9,.97,1.72-.17,3.44-.33,5.13-.72,2.71-.62,5.27-1.61,7.3-3.96,1.26-1.46,1.25-2.21-.27-3.32-1.98-1.45-4.15-2.37-6.42-3-2.01-.55-4.07-.06-6.08-.44-.5-.09-.48,.31-.48,.68,0,1.69,0,3.37,0,5.06Z"/>
    <path id="d" data-name="O" class="r" d="M91.27,19.57c-.04,7.07-1.87,13.38-5.69,18.91-6.13,8.89-16.56,7.56-22,2.43-3.56-3.36-5.32-7.68-5.33-13.01,0-7.49,2.18-14.01,6.48-19.51,3.51-4.49,7.93-6.38,13.11-5.91,1.57,.14,3.12,.35,4.64,.85,4.84,1.59,7.52,5.41,8.4,11.09,.26,1.7,.4,3.42,.38,5.15Zm-4.75,.01c.05-.81-.08-1.94-.19-3.07-.42-4.38-2.17-6.88-5.53-7.92-.63-.2-1.29-.31-1.94-.42-3.94-.63-7.51,.22-10.36,3.72-2.7,3.33-4.47,7.24-5.16,11.77-.46,2.99-.6,5.96,.48,8.86,2.6,6.96,12.51,9.77,17.68,2.9,3.34-4.44,4.86-9.67,5.01-15.84Z"/>
    <path id="e" data-name="R" class="r" d="M162.09,29.41c1.51,1.1,2.9,2.07,4.25,3.1,2.3,1.76,4.4,3.78,6.18,6.24,.77,1.07,.89,2.46,.34,3.47-.89,1.63-2.5,1.8-3.76,.34-2.07-2.37-4.28-4.52-6.71-6.37-2.85-2.17-5.9-3.86-9.15-5.06-.74-.27-.84-.05-.82,.74,.09,3.12,.15,6.23,.19,9.35,.03,1.79-.8,2.91-2.15,2.98-1.42,.08-2.38-.91-2.45-2.76-.3-7.62-.69-15.25,.29-22.85,.48-3.69,.12-7.39-.12-11.09-.09-1.39-.19-2.79,.5-4.06,.59-1.08,1.4-1.67,2.51-1.57,2.22,.21,4.47,.25,6.65,.72,5.08,1.1,9.17,4.25,11.99,9.27,3.11,5.54,1.9,11.26-2.88,14.93-1.46,1.12-3.05,1.95-4.85,2.61Zm-7.14-4.53c1.2,.04,2.39-.11,3.57-.28,2.78-.39,5.3-1.41,7.24-3.96,.92-1.21,1.21-2.48,.81-4.05-.57-2.23-1.88-3.76-3.36-5.16-2.9-2.75-6.31-3.6-9.93-3.74-.55-.02-.41,.38-.37,.74,.41,4.55,.29,9.09-.16,13.62-.09,.89-.55,2.1-.06,2.61,.45,.47,1.49,.17,2.27,.21Z"/>
    <path id="f" data-name="E" class="r" d="M256.02,40.27c1.92-.08,4.34,.03,6.75-.37,1.99-.33,3,.83,2.89,3.02-.07,1.34-.63,2.13-1.81,2.44-1.94,.51-3.93,.49-5.91,.51-3.07,.04-6.16,.24-9.21-.44-3.54-.79-4.95-1.92-5.6-7.87-.44-4.02-.22-8.07-.03-12.1,.03-.64-.05-1.24-.17-1.84-.23-1.15,.42-2.1,.47-3.21,.2-5.05,.74-10.1-.04-15.15-.09-.6-.07-1.25,0-1.87,.24-2.18,1.91-3.15,3.54-2.04,.41,.28,.72,.27,1.13,.15,4.6-1.41,9.26-1.91,13.99-1.14,1.37,.22,2.72,.57,4.01,1.16,1.35,.62,1.94,2,1.52,3.53-.42,1.55-1.54,2.27-2.98,1.79-5.22-1.72-10.43-1.46-15.63,.13-.36,.11-.73,.08-.67,.78,.34,3.86,.01,7.7-.2,11.55-.05,.83,.11,1,.78,.93,4.25-.5,8.5-.97,12.75-1.44,.72-.08,1.44-.14,2.16-.12,1.31,.04,2.17,1.07,2.22,2.58,.06,1.8-.6,2.78-2.04,2.94-4.81,.53-9.63,1.05-14.44,1.54-1.75,.18-1.78,.13-1.83,2.23-.08,3.3-.25,6.6,.15,9.9,.23,1.85,.62,2.34,2.25,2.41,1.82,.08,3.64,.02,5.96,.02Z"/>
    <path id="g" data-name="E" class="p" d="M327.05,40.27c1.84-.08,4.23,.03,6.6-.37,2.04-.34,3.13,.96,2.9,3.21-.12,1.23-.66,1.95-1.77,2.25-1.97,.52-3.99,.5-6,.52-3.07,.04-6.16,.24-9.21-.45-3.57-.82-4.75-2.28-5.38-6.51-.61-4.16-.39-8.34-.25-12.52,.03-.87,.13-1.74-.1-2.61-.31-1.2,.4-2.25,.45-3.42,.15-3.99,.54-7.98,.29-11.98-.09-1.39-.33-2.77-.36-4.16-.06-2.91,1.55-4.07,3.76-2.73,.34,.21,.59,.1,.88,0,4.07-1.22,8.19-1.8,12.39-1.37,1.97,.21,3.93,.54,5.77,1.44,1.69,.82,2.06,3.21,.76,4.7-.68,.78-1.49,.85-2.36,.56-5.22-1.74-10.42-1.46-15.62,.13-.37,.11-.72,.11-.65,.79,.36,3.78,.02,7.55-.18,11.32-.05,.97,.07,1.24,.95,1.13,4.18-.52,8.37-.97,12.56-1.42,.72-.08,1.44-.13,2.16-.12,1.31,.04,2.18,1.07,2.23,2.56,.06,1.79-.59,2.79-2.03,2.95-4.12,.46-8.25,.89-12.37,1.33-1.06,.11-2.12,.25-3.19,.34-.44,.04-.67,.18-.68,.76-.08,3.78-.34,7.55,.12,11.32,.22,1.79,.59,2.25,2.21,2.32,1.85,.08,3.71,.02,6.1,.02Z"/>
    <path id="h" data-name="A" class="r" d="M203.51,44.08c-1.25,.02-1.81-.87-2.31-1.82-1.06-2.03-1.58-4.3-2.02-6.59-.36-1.86-.67-3.73-.96-5.61-.1-.63-.24-.85-.84-.7-3.62,.89-7.25,1.73-10.89,2.56-.48,.11-.66,.43-.82,.91-1.1,3.19-2.32,6.32-3.64,9.4-.72,1.69-2.11,2.17-3.37,1.23-1-.74-1.32-1.89-.89-3.37,.74-2.53,1.73-4.94,2.7-7.36,.3-.76,.54-1.41,.27-2.35-.41-1.43,.24-2.74,1.48-3.23,.57-.23,.85-.63,1.12-1.19,3.19-6.74,6.52-13.38,10.4-19.62,.44-.71,.93-1.39,1.45-2.02,1.04-1.26,2.21-1.09,3.05,.37,.6,1.04,.72,2.26,.9,3.44,1.29,8.6,2.97,17.1,4.56,25.63,.45,2.4,1.49,4.58,1.95,6.99,.24,1.24-.12,2.26-1.01,2.95-.38,.29-.79,.43-1.11,.4Zm-14.74-18.57c2.72-.62,5.26-1.21,7.82-1.77,.59-.13,.38-.53,.32-.89-.38-2.12-.74-4.24-1.15-6.34-.19-.96-.25-1.96-.63-3-2.14,4.05-4.21,7.97-6.34,12Z"/>
    <path id="i" data-name="S" class="r" d="M12.05,44.81c-3.12,.02-6.1-.72-8.82-2.57-1.66-1.13-2.91-2.67-3.19-5.02-.17-1.42,.26-2.51,1.25-3.01,1.05-.54,2.11-.27,2.83,.92,1.07,1.76,2.13,3.46,4.04,4.05,2.71,.82,5.41,.78,8.09-.1,1.58-.52,3.05-1.32,4.33-2.57,2.91-2.86,2.66-7.47-.56-9.81-2.16-1.57-4.57-2.17-7.08-2.27-2.15-.09-4.25-.45-6.2-1.58-3.66-2.13-4.83-6.41-2.86-10.64,1.33-2.85,3.47-4.71,5.82-6.23,4.63-3,9.38-2.68,14.16-.51,.29,.13,.56,.34,.82,.53,.81,.61,1.12,1.44,.84,2.55-.27,1.1-.95,1.49-1.85,1.5-1.75,.02-3.4-.67-5.1-.95-3.11-.5-6,.07-8.52,2.4-.88,.81-1.53,1.83-1.82,3.12-.43,1.89,0,3.01,1.52,3.83,1.45,.78,3.02,.95,4.58,1.11,1.97,.21,3.95,.26,5.85,1.02,3.78,1.51,6.48,4.27,7.06,9.07,.59,4.88-1.05,8.74-4.52,11.53-3.21,2.58-6.79,3.67-10.67,3.64Z"/>
    <path id="j" data-name="V" class="r" d="M224.35,35.54c1.36-4.29,2.57-8.25,3.86-12.17,1.83-5.53,3.3-11.22,5.26-16.69,.5-1.39,1.17-2.68,2.02-3.82,.84-1.12,2.03-1.3,3.05-.5,1.03,.8,1.5,2.37,.81,3.56-2.52,4.36-3.5,9.46-5.09,14.26-2.25,6.79-4.22,13.72-6.61,20.45-.38,1.08-.86,2.11-1.3,3.17-.47,1.15-1.23,1.69-2.34,1.61-1.11-.08-1.82-.77-2.2-1.91-.67-2.01-1.32-4.04-1.89-6.09-2.67-9.55-4.74-19.29-7.04-28.96-.23-.95-.37-1.93-.47-2.91-.17-1.66,.61-2.96,1.84-3.2,1.47-.29,2.49,.5,2.81,2.29,1.49,8.22,3.66,16.22,5.53,24.32,.49,2.12,1.11,4.19,1.76,6.6Z"/>
    <path id="k" data-name="T" class="r" d="M104.69,8.78c-2.23-.01-4.46-.18-6.64-.75-1.87-.48-2.67-2.25-1.91-4.1,.48-1.15,1.29-1.66,2.48-1.48,3.55,.53,7.11,1.01,10.7,.74,5.12-.38,10.21,.36,15.32,.49,1.39,.04,2.3,1.23,2.27,2.89-.03,1.57-.95,2.63-2.35,2.65-3.27,.04-6.51-.46-9.77-.57-2.27-.08-2.33-.18-2.2,2.42,.27,5.71,.69,11.42,.89,17.13,.13,3.56,.31,7.11,.41,10.66,.03,1.04-.17,2.04-.54,2.98-.53,1.36-1.4,1.88-2.58,1.56-1.12-.3-1.86-1.36-1.8-2.71,.38-9.41-.52-18.75-1.03-28.11-.05-.91-.12-1.83-.09-2.75,.02-.78-.15-1.15-.89-1.07-.75,.08-1.51,.02-2.26,.02Z"/>
    <path id="l" data-name="T" class="p" d="M359.52,13.35c.29,5.78,.79,11.56,.89,17.35,.04,2.5,.21,4.98,.35,7.47,.07,1.21-.09,2.42-.52,3.55-.58,1.51-1.45,2.04-2.7,1.67-1.16-.35-1.91-1.51-1.71-3,.25-1.84,.11-3.65,.07-5.48-.16-8.51-.86-16.99-1.28-25.48-.03-.68-.31-.66-.71-.65-2.61,.02-5.22,.04-7.8-.48-.55-.11-1.11-.23-1.65-.42-1.35-.46-1.99-1.73-1.69-3.29,.29-1.52,1.29-2.38,2.64-2.14,5.09,.94,10.2,.72,15.32,.64,3.04-.04,6.08,.36,9.12,.55,.5,.03,1.01,.01,1.51,.03,1.44,.05,2.47,1.27,2.43,2.87-.04,1.59-1.02,2.67-2.46,2.68-3.27,.03-6.51-.46-9.78-.58-2.31-.08-2.3-.19-2.15,2.51,.04,.73,.07,1.46,.11,2.2Z"/>
    <path id="m" data-name="L" class="r" d="M32.95,22.73c0-6.02,0-12.04,0-18.05,0-1.77,.95-2.98,2.3-2.98,1.38,0,2.28,1.16,2.29,2.97,.04,9.4-.14,18.79-.62,28.17-.11,2.16-.37,4.31-.39,6.48,0,.66,.05,.91,.75,.88,4.78-.18,9.37-1.52,13.91-3.11,.6-.21,1.2-.47,1.84-.25,.93,.33,1.48,1.08,1.64,2.18,.18,1.23-.09,2.29-1.07,2.92-1.3,.84-2.72,1.31-4.15,1.7-4.31,1.19-8.67,2.08-13.12,2.1-.22,0-.44,0-.66-.01-2.75-.27-3.95-2.02-3.76-5.32,.34-5.89,.64-11.79,.78-17.69,.09,0,.17,0,.26,0Z"/>
    <path id="n" data-name="TIRE" class="r" d="M134.93,30.84c-1.76,0-3.51,0-5.27,0-1.23,0-1.79-.61-1.83-1.92-.05-1.46,.48-2.21,1.75-2.27,2.63-.13,5.26-.2,7.89-.29,1-.04,2-.08,3-.12,1.39-.06,2.16,.55,2.29,1.8,.14,1.34-.4,2.27-1.64,2.43-1.65,.21-3.31,.24-4.97,.34-.41,.02-.81,0-1.22,0,0,.01,0,.02,0,.04Z"/>
    <path id="o" data-name="TOCHHKA" class="q" d="M275.29,43.93c-1.63,0-2.84-1.04-2.85-2.44,0-1.41,1.3-2.5,2.93-2.47,1.58,.04,2.85,1.15,2.82,2.5-.02,1.35-1.3,2.42-2.91,2.41Z"/>
  </g>
</svg>